<svg version="1.1" id="Layer_1" xmlns="http://www.w3.org/2000/svg" xmlns:xlink="http://www.w3.org/1999/xlink" viewBox="0 0 390.4 390.4" xml:space="preserve"><g><rect x="226.004" y="135.58" style="fill:#56ACE0;" width="45.511" height="82.36"/><path style="fill:#56ACE0;" d="M343.596,85.156c-4.331,1.099-7.046,4.848-7.046,9.762v123.022h-43.378v-93.22c0-5.947-4.848-10.861-10.861-10.861h-67.168c-5.947,0-10.861,4.848-10.861,10.861v93.22h-43.378V94.917c0-4.848-2.715-8.663-7.046-10.279l94.901-60.703L343.596,85.156z"/></g><g><rect x="226.004" y="135.58" style="fill:#FFC10D;" width="45.511" height="82.36"/><path style="fill:#FFC10D;" d="M54.756,38.028c0-9.244-7.564-16.291-16.291-16.291c-9.244,0-16.291,7.564-16.291,16.291c0,8.663,7.564,16.291,16.291,16.291C47.127,54.836,54.756,47.208,54.756,38.028z"/></g><g><path style="fill:#194F82;" d="M379.345,217.939h-21.139V105.778h21.139c11.378,0,14.61-14.61,5.947-20.04L254.707,1.762c-3.814-2.198-8.145-2.198-11.895,0L112.226,85.737c-9.762,6.529-3.814,20.04,5.947,20.04h21.139v112.162H10.861C4.913,217.939,0,222.788,0,228.8v150.626c0,5.948,4.848,10.861,10.861,10.861s10.861-4.849,10.861-10.861v-86.174l53.657-53.657h10.861V345.81c0,5.947,4.848,10.861,10.861,10.861s10.861-4.848,10.861-10.861v-10.861h40.081v10.861c0,5.947,4.848,10.861,10.861,10.861c6.012,0,10.861-4.848,10.861-10.861V239.596h145.261l53.657,53.657v86.174c0,5.948,4.848,10.861,10.861,10.861c5.947,0,10.861-4.849,10.861-10.861V228.8C390.206,222.853,385.358,217.939,379.345,217.939z M21.657,262.416v-23.273h23.273L21.657,262.416z M147.976,313.358h-40.081v-30.319h40.081V313.358z M147.976,261.317h-40.081v-21.657h40.081V261.317z M271.515,217.939h-45.511v-82.36h45.511V217.939z M336.549,94.917v123.022h-43.378v-93.22c0-5.947-4.848-10.861-10.861-10.861h-67.168c-5.947,0-10.861,4.848-10.861,10.861v93.22h-43.378V94.917c0-4.848-2.715-8.663-7.046-10.279l94.901-60.703l94.836,61.22C339.265,86.255,336.549,90.069,336.549,94.917z M368.549,262.416l-23.273-23.273h23.273V262.416z"/><path style="fill:#194F82;" d="M37.947,76.493c21.139,0,37.947-17.325,37.947-37.947S58.505,0.598,37.947,0.598S0,17.988,0,38.545S17.325,76.493,37.947,76.493z M37.947,21.737c9.244,0,16.291,7.564,16.291,16.291c0,8.663-7.564,16.291-16.291,16.291c-9.244,0-16.291-7.564-16.291-16.291C21.657,29.366,29.285,21.737,37.947,21.737z"/></g></svg>
