<?xml version="1.0" encoding="iso-8859-1"?>
<!-- Uploaded to: SVG Repo, www.svgrepo.com, Generator: SVG Repo Mixer Tools -->
<svg version="1.1" id="Layer_1" xmlns="http://www.w3.org/2000/svg" xmlns:xlink="http://www.w3.org/1999/xlink" 
	 viewBox="0 0 512 512" xml:space="preserve">
<path style="fill:#EEBE43;" d="M285.99,0h-65.546c-63.252,0-114.705,52.429-114.705,116.87v233.739
	c0,46.011,36.742,83.456,81.9,83.478c18.061,0.006,41.819,0.011,65.578,0.011s47.517-0.006,65.578-0.011
	c45.158-0.022,81.9-37.467,81.9-83.478V116.87C400.696,52.429,349.243,0,285.99,0z"/>
<path style="fill:#E4A637;" d="M285.99,0h-32.772v434.098c23.758,0,47.517-0.006,65.578-0.011c45.158-0.022,81.9-37.467,81.9-83.478
	V116.87C400.696,52.429,349.243,0,285.99,0z"/>
<path style="fill:#EFCB99;" d="M50.087,422.957c-9.217,0-16.696-7.473-16.696-16.696V172.522c0-9.223,7.479-16.696,16.696-16.696
	s16.696,7.473,16.696,16.696v233.739C66.783,415.484,59.304,422.957,50.087,422.957z"/>
<path style="fill:#D6AB75;" d="M66.783,406.261V172.522c0-9.223-7.479-16.696-16.696-16.696v267.13
	C59.304,422.957,66.783,415.484,66.783,406.261z"/>
<path style="fill:#6E6057;" d="M83.478,512H16.696C7.479,512,0,504.527,0,495.304v-55.652c0-27.619,22.468-50.087,50.087-50.087
	s50.087,22.468,50.087,50.087v55.652C100.174,504.527,92.695,512,83.478,512z"/>
<path style="fill:#615349;" d="M83.478,512c9.217,0,16.696-7.473,16.696-16.696v-55.652c0-27.619-22.468-50.087-50.087-50.087V512
	H83.478z"/>
<path style="fill:#EFCB99;" d="M461.913,422.957c-9.217,0-16.696-7.473-16.696-16.696V172.522c0-9.223,7.479-16.696,16.696-16.696
	c9.217,0,16.696,7.473,16.696,16.696v233.739C478.609,415.484,471.13,422.957,461.913,422.957z"/>
<path style="fill:#D6AB75;" d="M478.609,406.261V172.522c0-9.223-7.479-16.696-16.696-16.696v267.13
	C471.13,422.957,478.609,415.484,478.609,406.261z"/>
<path style="fill:#6E6057;" d="M495.304,512h-66.783c-9.217,0-16.696-7.473-16.696-16.696v-55.652
	c0-27.619,22.468-50.087,50.087-50.087S512,412.033,512,439.652v55.652C512,504.527,504.521,512,495.304,512z"/>
<path style="fill:#615349;" d="M495.304,512c9.217,0,16.696-7.473,16.696-16.696v-55.652c0-27.619-22.468-50.087-50.087-50.087V512
	H495.304z"/>
<g>
	<rect x="239.304" style="fill:#FFA733;" width="33.391" height="100.174"/>
	<rect x="239.304" y="333.913" style="fill:#FFA733;" width="33.391" height="100.174"/>
</g>
<g>
	<rect x="256" y="333.913" style="fill:#EE8700;" width="16.696" height="100.174"/>
	<path style="fill:#EE8700;" d="M322.783,367.304H189.217c-9.22,0-16.696-7.475-16.696-16.696V267.13h166.957v83.478
		C339.478,359.829,332.003,367.304,322.783,367.304z"/>
	<rect x="256" style="fill:#EE8700;" width="16.696" height="100.174"/>
</g>
<path style="fill:#CB721B;" d="M256,367.304h66.783c9.22,0,16.696-7.475,16.696-16.696V267.13H256V367.304z"/>
<rect x="172.522" y="200.348" style="fill:#FFA733;" width="166.957" height="100.174"/>
<g>
	<rect x="256" y="200.348" style="fill:#EE8700;" width="83.478" height="100.174"/>
	<rect x="172.522" y="133.565" style="fill:#EE8700;" width="166.957" height="100.174"/>
</g>
<rect x="256" y="133.565" style="fill:#CB721B;" width="83.478" height="100.174"/>
<path style="fill:#FFA733;" d="M339.478,166.957H172.522V116.87c0-27.662,22.424-50.087,50.087-50.087h66.783
	c27.662,0,50.087,22.424,50.087,50.087V166.957z"/>
<path style="fill:#EE8700;" d="M289.391,66.783H256v100.174h83.478V116.87C339.478,89.207,317.055,66.783,289.391,66.783z"/>
</svg>